{"title":"Harry Potter And The Deathly Hallows 2011 UNRATED BRRiP XviD AC3","uid":6774992,"size":4665230426,"categoryP":"video","categoryS":"movies","magnet":"?xt=urn:btih:af03e116367827019e2dbdf657fabe0a80ec931b&amp;dn=Harry+Potter+And+The+Deathly+Hallows+2011+UNRATED+BRRiP+XviD+AC3&amp;tr=udp%3A%2F%2Ftracker.openbittorrent.com%3A80&amp;tr=udp%3A%2F%2Fopen.demonii.com%3A1337&amp;tr=udp%3A%2F%2Ftracker.coppersurfer.tk%3A6969&amp;tr=udp%3A%2F%2Fexodus.desync.com%3A6969","seeders":0,"leechers":0,"uploader":"TvTeam","files":160,"time":1319713143,"description":". \n &lt;a href=&quot;\nhttp://www.torrenting.com&quot; rel=&quot;nofollow&quot; target=&quot;_NEW&quot;&gt;\nhttp://www.torrenting.com&lt;/a&gt;          :     Once &amp; For all ;)\n\n\n               www . Torrenting . Com \n\n(((((((((((((= Enjoy No RAR releases =))))))))))))))))))))\n\n\n...................................NFO:....................................\n\n.\nHarry Potter And The Deathly Hallows 2011 UNRATED BRRiP XviD AC3 - MiSTERE\n\nSOURCE: Harry.Potter.And.The.Deathly.Hallows.Part.2.720p.Bluray.x264-MHD \n\nVideo\nID                               : 0\nFormat                           : MPEG-4 Visual\nFormat profile                   : Advanced Simple@L5\nFormat settings, BVOP            : 2\nFormat settings, QPel            : No\nFormat settings, GMC             : No warppoints\nFormat settings, Matrix          : Default (H.263)\nMuxing mode                      : Packed bitstream\nCodec ID                         : XVID\nCodec ID/Hint                    : XviD\nDuration                         : 2h 10mn\nBit rate                         : 2 103 Kbps\nWidth                            : 720 pixels\nHeight                           : 304 pixels\nDisplay aspect ratio             : 2.35:1\nFrame rate                       : 23.976 fps\nColor space                      : YUV\nChroma subsampling               : 4:2:0\nBit depth                        : 8 bits\nScan type                        : Progressive\nCompression mode                 : Lossy\nBits/(Pixel*Frame)               : 0.401\nStream size                      : 1.92 GiB (89%)\nWriting library                  : XviD 64\n\nAudio\nID                               : 1\nFormat                           : AC-3\nFormat/Info                      : Audio Coding 3\nMode extension                   : CM (complete main)\nCodec ID                         : 2000\nDuration                         : 2h 10mn\nBit rate mode                    : Constant\nBit rate                         : 256 Kbps\nChannel(s)                       : 6 channels\nChannel positions                : Front: L C R, Side: L R, LFE\nSampling rate                    : 48.0 KHz\nBit depth                        : 16 bits\nCompression mode                 : Lossy\nStream size                      : 239 MiB (11%)\nAlignment                        : Aligned on interleaves\nInterleave, duration             : 42 ms (1.00 video frame)\n\n\nNotes:\nResized and sharpened video \nthen adjusted the RGB abit\n\n[IMG]http://i.imgur.com/1yzyu.png[/IMG]\n[IMG]http://i.imgur.com/Nslah.png[/IMG]\n[IMG]http://i.imgur.com/CUMUP.png[/IMG]\n[IMG]http://i.imgur.com/rdyBE.png[/IMG]\n[IMG]http://i.imgur.com/TI1fJ.png[/IMG]","torrent":{"xt":"urn:btih:af03e116367827019e2dbdf657fabe0a80ec931b","amp;dn":"Harry+Potter+And+The+Deathly+Hallows+2011+UNRATED+BRRiP+XviD+AC3","amp;tr":["udp%3A%2F%2Ftracker.openbittorrent.com%3A80","udp%3A%2F%2Fopen.demonii.com%3A1337","udp%3A%2F%2Ftracker.coppersurfer.tk%3A6969","udp%3A%2F%2Fexodus.desync.com%3A6969"],"infoHash":"af03e116367827019e2dbdf657fabe0a80ec931b","infoHashBuffer":{"type":"Buffer","data":[175,3,225,22,54,120,39,1,158,45,189,246,87,250,190,10,128,236,147,27]},"announce":[],"urlList":[]}}